<svg width="136" height="136" viewBox="0 0 136 136" fill="none" xmlns="http://www.w3.org/2000/svg">
<path d="M8 68C8 34.8629 34.8629 8 68 8V8C101.137 8 128 34.8629 128 68V68C128 101.137 101.137 128 68 128V128C34.8629 128 8 101.137 8 68V68Z" fill="#191717"/>
<path fill-rule="evenodd" clip-rule="evenodd" d="M67.9858 29C58.2369 29.0051 48.8078 32.4579 41.3843 38.7411C33.9608 45.0243 29.0272 53.7282 27.4655 63.2964C25.9037 72.8646 27.8158 82.6732 32.8598 90.9682C37.9038 99.2633 45.7508 105.504 54.9977 108.574C57.0377 108.953 57.8061 107.689 57.8061 106.614C57.8061 105.538 57.7653 102.421 57.7517 99.0138C46.3276 101.482 43.9136 94.1929 43.9136 94.1929C42.0504 89.46 39.3576 88.2159 39.3576 88.2159C35.6312 85.6871 39.6364 85.7345 39.6364 85.7345C43.7641 86.0252 45.9333 89.9468 45.9333 89.9468C49.5917 96.1875 55.5417 94.3823 57.8809 93.3275C58.2481 90.6838 59.3157 88.8853 60.4921 87.8643C51.3665 86.8366 41.7784 83.3342 41.7784 67.6884C41.7219 63.6308 43.2362 59.7068 46.0081 56.7283C45.5865 55.7006 44.1788 51.5491 46.4092 45.9101C46.4092 45.9101 49.8569 44.8148 57.7041 50.0954C64.435 48.2652 71.5365 48.2652 78.2674 50.0954C86.1078 44.8148 89.5486 45.9101 89.5486 45.9101C91.7858 51.5356 90.3782 55.6871 89.9566 56.7283C92.7373 59.7073 94.2548 63.6381 94.193 67.702C94.193 83.3815 84.5846 86.8366 75.4454 87.844C76.9142 89.1152 78.2266 91.5966 78.2266 95.41C78.2266 100.873 78.179 105.268 78.179 106.614C78.179 107.702 78.9202 108.973 81.001 108.574C90.2489 105.504 98.0967 99.2618 103.141 90.9654C108.185 82.6689 110.096 72.8588 108.532 63.2898C106.969 53.7207 102.033 45.0167 94.6066 38.7346C87.1807 32.4524 77.7493 29.0019 67.9993 29H67.9858Z" fill="white"/>
<path d="M42.4713 87.6277C42.3829 87.8305 42.0565 87.8914 41.7913 87.7494C41.5261 87.6074 41.3289 87.3437 41.4241 87.1341C41.5193 86.9245 41.8389 86.8704 42.1041 87.0124C42.3693 87.1544 42.5733 87.4248 42.4713 87.6277Z" fill="white"/>
<path d="M44.1369 89.4735C43.996 89.544 43.8349 89.5637 43.6811 89.5292C43.5273 89.4946 43.3903 89.408 43.2937 89.2841C43.0285 89.0002 42.974 88.608 43.178 88.4322C43.382 88.2564 43.7493 88.3376 44.0145 88.6215C44.2797 88.9055 44.3409 89.2977 44.1369 89.4735Z" fill="white"/>
<path d="M45.7557 91.8196C45.5041 91.9954 45.0757 91.8196 44.8377 91.468C44.7719 91.405 44.7195 91.3293 44.6838 91.2457C44.648 91.1621 44.6296 91.0721 44.6296 90.9812C44.6296 90.8903 44.648 90.8004 44.6838 90.7167C44.7195 90.6331 44.7719 90.5575 44.8377 90.4944C45.0893 90.3254 45.5177 90.4944 45.7557 90.8392C45.9937 91.1841 46.0005 91.6438 45.7557 91.8196V91.8196Z" fill="white"/>
<path d="M47.9521 94.0915C47.7277 94.3417 47.2721 94.2741 46.8981 93.936C46.5241 93.5979 46.4357 93.1381 46.6601 92.8947C46.8845 92.6513 47.3401 92.719 47.7277 93.0503C48.1153 93.3816 48.1901 93.8481 47.9521 94.0915V94.0915Z" fill="white"/>
<path d="M51.0322 95.4167C50.9302 95.7344 50.4678 95.8764 50.0054 95.7412C49.543 95.606 49.237 95.2273 49.3254 94.9028C49.4138 94.5782 49.883 94.4295 50.3522 94.5782C50.8214 94.727 51.1206 95.0853 51.0322 95.4167Z" fill="white"/>
<path d="M54.3918 95.6465C54.3918 95.9778 54.011 96.2618 53.5214 96.2686C53.0318 96.2753 52.6306 96.0049 52.6306 95.6736C52.6306 95.3423 53.0114 95.0583 53.501 95.0515C53.9906 95.0448 54.3918 95.3085 54.3918 95.6465Z" fill="white"/>
<path d="M57.5196 95.1261C57.5808 95.4574 57.2408 95.8022 56.7512 95.8833C56.2616 95.9645 55.8332 95.7684 55.772 95.4438C55.7108 95.1193 56.0644 94.7677 56.5404 94.6798C57.0164 94.5919 57.4584 94.7948 57.5196 95.1261Z" fill="white"/>
<path d="M68 120C39.2812 120 16 96.7188 16 68H0C0 105.555 30.4446 136 68 136V120ZM120 68C120 96.7188 96.7188 120 68 120V136C105.555 136 136 105.555 136 68H120ZM68 16C96.7188 16 120 39.2812 120 68H136C136 30.4446 105.555 0 68 0V16ZM68 0C30.4446 0 0 30.4446 0 68H16C16 39.2812 39.2812 16 68 16V0Z" fill="black"/>
</svg>
